<svg id="Layer_1" data-name="Layer 1" xmlns="http://www.w3.org/2000/svg" viewBox="0 0 136 227.59"><defs><style>.cls-1{fill:#fff;}.cls-2{fill:none;stroke:#fcfcfc;stroke-linecap:round;stroke-linejoin:round;stroke-width:2px;stroke-dasharray:12;}</style></defs><title>safe route</title><path class="cls-1" d="M320.23,475l.11,0L384.65,599.4a1.54,1.54,0,0,0,2.72,0l66.48-125.67a1.62,1.62,0,0,0,.17-.48,69.7,69.7,0,0,0,1-11.64c0-37.9-30.44-68.62-68-68.62s-68,30.72-68,68.62a69.34,69.34,0,0,0,1.24,13.06Z" transform="translate(-319 -393)"/><path d="M404,450.3a18,18,0,1,0-25.78,16.22L368,511h36l-10.22-44.48A18,18,0,0,0,404,450.3Z" transform="translate(-319 -393)"/><ellipse class="cls-2" cx="66" cy="200.79" rx="44" ry="25.79"/></svg>